<svg xmlns="http://www.w3.org/2000/svg" viewBox="0 0 512 512" role="img" aria-label="MemoStem five-dot M logo">
  <defs>
    <linearGradient id="bg" x1="68" y1="462" x2="442" y2="52" gradientUnits="userSpaceOnUse">
      <stop stop-color="#160820"/>
      <stop offset="0.52" stop-color="#27103f"/>
      <stop offset="1" stop-color="#43135f"/>
    </linearGradient>
    <linearGradient id="border" x1="54" y1="458" x2="458" y2="54" gradientUnits="userSpaceOnUse">
      <stop stop-color="#6d5dfc"/>
      <stop offset="0.52" stop-color="#b743ee"/>
      <stop offset="1" stop-color="#ff3dbd"/>
    </linearGradient>
    <linearGradient id="edge" x1="96" y1="386" x2="416" y2="126" gradientUnits="userSpaceOnUse">
      <stop stop-color="#7668ff"/>
      <stop offset="0.5" stop-color="#a64ff3"/>
      <stop offset="1" stop-color="#f347c4"/>
    </linearGradient>
    <radialGradient id="node" cx="0" cy="0" r="1" gradientUnits="userSpaceOnUse" gradientTransform="translate(99 122) rotate(48) scale(76)">
      <stop stop-color="#ff7dd8"/>
      <stop offset="0.58" stop-color="#f53dae"/>
      <stop offset="1" stop-color="#d91b8f"/>
    </radialGradient>
    <radialGradient id="core" cx="0" cy="0" r="1" gradientUnits="userSpaceOnUse" gradientTransform="translate(242 354) rotate(48) scale(82)">
      <stop stop-color="#fff89a"/>
      <stop offset="0.6" stop-color="#f2e85c"/>
      <stop offset="1" stop-color="#efb62f"/>
    </radialGradient>
    <filter id="shadow" x="-25%" y="-25%" width="150%" height="160%" color-interpolation-filters="sRGB">
      <feDropShadow dx="0" dy="14" stdDeviation="12" flood-color="#09030f" flood-opacity="0.46"/>
      <feDropShadow dx="0" dy="0" stdDeviation="8" flood-color="#a855f7" flood-opacity="0.24"/>
    </filter>
  </defs>
  <rect width="512" height="512" rx="112" fill="url(#bg)"/>
  <rect x="20" y="20" width="472" height="472" rx="96" fill="none" stroke="url(#border)" stroke-width="14"/>
  <g filter="url(#shadow)">
    <path d="M104 370V142l152 228 152-228v228" fill="none" stroke="#100719" stroke-width="50" stroke-linecap="round" stroke-linejoin="round" opacity="0.48"/>
    <path d="M104 370V142l152 228 152-228v228" fill="none" stroke="url(#edge)" stroke-width="34" stroke-linecap="round" stroke-linejoin="round"/>
    <circle cx="104" cy="370" r="38" fill="url(#node)"/>
    <circle cx="104" cy="142" r="38" fill="url(#node)"/>
    <circle cx="256" cy="370" r="41" fill="url(#core)"/>
    <circle cx="408" cy="142" r="38" fill="url(#node)"/>
    <circle cx="408" cy="370" r="38" fill="url(#node)"/>
  </g>
  <path d="M64 82c86-50 288-54 384-3" fill="none" stroke="#ffffff" stroke-opacity="0.13" stroke-width="20" stroke-linecap="round"/>
</svg>
